Coordinates
version=1
nRows=29
nColumns=24
inDegrees=yes

Units are S.I. units (second, meters, Newtons, ...)
Angles are in degrees.

endheader
time	pelvis_tilt	pelvis_list	pelvis_rotation	pelvis_tx	pelvis_ty	pelvis_tz	hip_flexion_r	hip_adduction_r	hip_rotation_r	knee_angle_r	ankle_angle_r	subtalar_angle_r	mtp_angle_r	hip_flexion_l	hip_adduction_l	hip_rotation_l	knee_angle_l	ankle_angle_l	subtalar_angle_l	mtp_angle_l	lumbar_extension	lumbar_bending	lumbar_rotation
      0.57066667	      3.17171008	      0.79232453	      5.29032249	     -0.50804297	      1.08361836	      0.30153504	      6.55632500	      1.87641267	     -4.10549246	    -17.08280200	      8.66093360	     -5.14511539	      6.34138870	     14.32352119	     -3.85849270	     -3.29645872	    -70.30768224	      3.86208006	      1.11731938	      4.21512947	    -15.37707533	      3.55447886	     -1.38967906
      0.57483333	      3.17685822	      0.97520467	      5.22596176	     -0.50304651	      1.08474683	      0.30181634	      6.04645434	      1.72702082	     -4.06937489	    -16.67767117	      8.69376330	     -5.07900201	      6.33424249	     14.77076632	     -3.64452655	     -3.45283802	    -69.87591451	      4.12676428	      1.32479672	      4.19670424	    -15.41348434	      3.30659212	     -1.30710830
      0.57900000	      3.19145785	      1.14869541	      5.14665707	     -0.49809272	      1.08581910	      0.30210293	      5.53167569	      1.58859027	     -4.00416895	    -16.27346993	      8.73768541	     -5.00742996	      6.32682014	     15.19909865	     -3.44715739	     -3.62497237	    -69.40403538	      4.40508933	      1.61860221	      4.17966579	    -15.48717939	      3.07339749	     -1.18272314
      0.58316667	      3.23936704	      1.32143071	      5.04423016	     -0.49317811	      1.08691317	      0.30240464	      4.98422035	      1.45565265	     -3.89588505	    -15.86786636	      8.80208414	     -4.94077196	      6.31393824	     15.57005982	     -3.25234719	     -3.80654172	    -68.86689788	      4.68022253	      1.96389964	      4.14858600	    -15.62451549	      2.85696123	     -0.95842859
      0.58733333	      3.26257595	      1.47795849	      4.94110855	     -0.48822528	      1.08791542	      0.30269922	      4.46487145	      1.33491383	     -3.80955879	    -15.46159135	      8.83632882	     -4.88799208	      6.30095562	     15.95663454	     -3.08080255	     -4.00410497	    -68.28718544	      4.94874140	      2.29209025	      4.12418632	    -15.70437879	      2.64438537	     -0.78913272
      0.59150000	      3.28217048	      1.63541204	      4.82184491	     -0.48328323	      1.08886767	      0.30300891	      3.95423894	      1.21162027	     -3.70822425	    -15.05894400	      8.87238976	     -4.83306486	      6.28779599	     16.32996640	     -2.91305434	     -4.22193905	    -67.65486107	      5.21611230	      2.64298289	      4.10374070	    -15.78094528	      2.41241130	     -0.61576265
      0.59566667	      3.31825367	      1.80026187	      4.69048502	     -0.47835606	      1.08979677	      0.30331965	      3.43332066	      1.07819684	     -3.60537558	    -14.66951936	      8.91502950	     -4.77003734	      6.27634994	     16.66626430	     -2.73898039	     -4.45139726	    -66.96601179	      5.47267125	      2.99599113	      4.08970031	    -15.87812412	      2.18625285	     -0.45025717
      0.59983333	      3.32435129	      1.94412228	      4.55338966	     -0.47341822	      1.09061672	      0.30361907	      2.94986323	      0.96291657	     -3.49093461	    -14.28460350	      8.95426943	     -4.71594611	      6.26450947	     17.02548105	     -2.58914054	     -4.68874584	    -66.23841314	      5.72804636	      3.35617561	      4.08021336	    -15.93584012	      1.97767300	     -0.27204386
      0.60400000	      3.36138659	      2.08567402	      4.40786664	     -0.46850658	      1.09143575	      0.30391996	      2.43613865	      0.84997653	     -3.37513518	    -13.89951243	      8.99400259	     -4.66153850	      6.25349955	     17.33490522	     -2.44606275	     -4.93397921	    -65.45856816	      5.97388899	      3.70799774	      4.07487459	    -16.03070671	      1.77452201	     -0.09823288
      0.60816667	      3.36223097	      2.23310399	      4.25002042	     -0.46358718	      1.09215014	      0.30422438	      1.97760169	      0.72282179	     -3.26068713	    -13.54764731	      9.02250036	     -4.59733298	      6.24602336	     17.66421807	     -2.29324088	     -5.19073026	    -64.62480290	      6.20245704	      4.03635335	      4.07515617	    -16.08205031	      1.57369219	      0.03026460
      0.61233333	      3.39132685	      2.34593622	      4.09562890	     -0.45867188	      1.09282582	      0.30452605	      1.47759403	      0.63830564	     -3.12318201	    -13.16431371	      9.08608958	     -4.55813160	      6.23429556	     17.95821094	     -2.18833264	     -5.44748627	    -63.76494473	      6.43629795	      4.38045997	      4.07448328	    -16.16484872	      1.38945711	      0.27094780
      0.61650000	      3.41021806	      2.47074529	      3.93168861	     -0.45376267	      1.09345816	      0.30481957	      0.99982302	      0.53410453	     -2.99037946	    -12.80269732	      9.12988428	     -4.51304960	      6.22161310	     18.24094895	     -2.06498198	     -5.71004891	    -62.84455639	      6.64466495	      4.67610100	      4.07428688	    -16.23700455	      1.19965291	      0.46561735
      0.62066667	      3.38889579	      2.58696196	      3.76529516	     -0.44884862	      1.09395313	      0.30509493	      0.58214097	      0.43089190	     -2.87271967	    -12.47374415	      9.16964096	     -4.45051256	      6.21393886	     18.55486411	     -1.94591522	     -5.97253109	    -61.88333912	      6.83834645	      4.94677449	      4.07662307	    -16.25226865	      1.03151590	      0.58783317
      0.62483333	      3.41011163	      2.68474253	      3.60024436	     -0.44394174	      1.09445130	      0.30537852	      0.10673676	      0.35296821	     -2.72988727	    -12.11625148	      9.24492495	     -4.41181355	      6.19945084	     18.81091001	     -1.85584835	     -6.23549435	    -60.88637675	      7.02292656	      5.21311444	      4.07801763	    -16.32453732	      0.86590631	      0.84053682
      0.62900000	      3.41796597	      2.77966892	      3.43431625	     -0.43904788	      1.09487437	      0.30564380	     -0.34114135	      0.27237220	     -2.60065968	    -11.78303363	      9.30520308	     -4.36479563	      6.18351303	     19.06617113	     -1.76220587	     -6.49265874	    -59.84230150	      7.18463327	      5.43375018	      4.07909968	    -16.37797254	      0.71278145	      1.02621501
      0.63316667	      3.40481416	      2.86626768	      3.26970479	     -0.43413175	      1.09520511	      0.30588892	     -0.76126283	      0.19571231	     -2.47451785	    -11.46084097	      9.37560228	     -4.32007839	      6.16783463	     19.32843024	     -1.67463829	     -6.74691681	    -58.75584615	      7.32403925	      5.62282880	      4.08019412	    -16.39737436	      0.56906233	      1.20094318
      0.63733333	      3.37125180	      2.94698105	      3.10681904	     -0.42922172	      1.09543839	      0.30612163	     -1.14639146	      0.12055796	     -2.36444477	    -11.16395952	      9.43525607	     -4.25717856	      6.15848533	     19.59856978	     -1.58656629	     -6.98906869	    -57.62844492	      7.44593077	      5.77632110	      4.08127399	    -16.39311232	      0.44297430	      1.31120221
      0.64150000	      3.33565508	      3.01699095	      2.94967846	     -0.42430461	      1.09560593	      0.30633334	     -1.53133842	      0.05552931	     -2.24872622	    -10.86292883	      9.51869487	     -4.20076906	      6.14924791	     19.85687763	     -1.50824365	     -7.22500490	    -56.46179522	      7.54446735	      5.90459949	      4.08190690	    -16.38674256	      0.32478540	      1.45520628
      0.64566667	      3.34750594	      3.07512139	      2.79661305	     -0.41941063	      1.09577977	      0.30654346	     -1.97029871	      0.00606078	     -2.13075408	    -10.55343466	      9.62676064	     -4.15919877	      6.12971853	     20.05098751	     -1.44376097	     -7.45000179	    -55.25942608	      7.61707435	      5.99309193	      4.08295944	    -16.43915202	      0.20771489	      1.70536732
      0.64983333	      3.30664607	      3.11781085	      2.65199727	     -0.41449537	      1.09581183	      0.30671800	     -2.34203163	     -0.03271217	     -2.02010959	    -10.26630054	      9.71557556	     -4.11472454	      6.10862846	     20.28868665	     -1.38461421	     -7.65342680	    -54.01953343	      7.67110648	      6.05646707	      4.08461262	    -16.42502329	      0.12139698	      1.86957573
      0.65400000	      3.24142655	      3.15910115	      2.51144346	     -0.40956363	      1.09575848	      0.30687813	     -2.67843893	     -0.07436797	     -1.92498784	    -10.00012844	      9.80033851	     -4.05672452	      6.09730284	     20.53434865	     -1.32099684	     -7.84635313	    -52.73537998	      7.69983585	      6.09852701	      4.08447919	    -16.37399120	      0.04330521	      1.95875344
      0.65816667	      3.20741393	      3.18954658	      2.38098963	     -0.40465201	      1.09568884	      0.30701639	     -3.05126694	     -0.10287329	     -1.83537482	     -9.72693928	      9.90643200	     -4.00737869	      6.08420940	     20.73314497	     -1.26492491	     -8.02248017	    -51.41554671	      7.70023392	      6.10432825	      4.08460137	    -16.36831194	     -0.02071750	      2.08354409
      0.66233333	      3.16784051	      3.20615942	      2.26038311	     -0.39973812	      1.09554805	      0.30712331	     -3.41414013	     -0.11842240	     -1.75025425	     -9.46337125	     10.01681712	     -3.95955858	      6.07025127	     20.92374575	     -1.21530714	     -8.17481829	    -50.05956369	      7.67922999	      6.08662774	      4.08535422	    -16.34793045	     -0.06948398	      2.21179240
      0.66650000	      3.11653359	      3.21876149	      2.14769176	     -0.39480857	      1.09534184	      0.30722088	     -3.76287014	     -0.13038939	     -1.67415465	     -9.20588648	     10.13469586	     -3.90853769	      6.05535451	     21.10920615	     -1.16247852	     -8.30666252	    -48.66253755	      7.63204523	      6.04092866	      4.08676515	    -16.31551875	     -0.11261618	      2.33276038
      0.67066667	      3.07529417	      3.22319211	      2.04562689	     -0.38988462	      1.09509098	      0.30728063	     -4.12131377	     -0.13558509	     -1.60980242	     -8.95235178	     10.25696768	     -3.85591027	      6.03978853	     21.26859283	     -1.11188012	     -8.42307717	    -47.23007199	      7.56488832	      5.98526049	      4.08905013	    -16.30230368	     -0.13845873	      2.43885768
      0.67483333	      3.04646484	      3.20412243	      1.96281328	     -0.38497065	      1.09480491	      0.30729189	     -4.49569152	     -0.11420459	     -1.55654095	     -8.69525224	     10.39410227	     -3.80043287	      6.01262940	     21.40365930	     -1.07042665	     -8.49063921	    -45.76934049	      7.47693806	      5.88008435	      4.09858772	    -16.29749648	     -0.13562067	      2.57181498
      0.67900000	      2.96977430	      3.18698554	      1.88206484	     -0.38001759	      1.09437736	      0.30730693	     -4.80755320	     -0.09778157	     -1.51070929	     -8.46621374	     10.51853287	     -3.74863949	      5.99599237	     21.57078019	     -1.02801550	     -8.56174586	    -44.27264423	      7.38009028	      5.83317254	      4.10337339	    -16.22817610	     -0.13527713	      2.62718646
      0.68316667	      2.91676924	      3.15134318	      1.81787593	     -0.37507444	      1.09394125	      0.30728432	     -5.14929263	     -0.05974947	     -1.47470820	     -8.22985979	     10.65729444	     -3.69688015	      5.97518567	     21.69881785	     -0.99173285	     -8.58954872	    -42.74584099	      7.25806661	      5.73334617	      4.11118623	    -16.19062873	     -0.11205324	      2.69230358
      0.68733333	      2.85506412	      3.11696664	      1.76666097	     -0.37011811	      1.09344530	      0.30722680	     -5.48265882	     -0.02423220	     -1.45232413	     -7.99697944	     10.79679507	     -3.64293968	      5.95500264	     21.81795706	     -0.94456595	     -8.59553934	    -41.18386267	      7.12415811	      5.64711232	      4.11985134	    -16.14765935	     -0.08132692	      2.74059961
